<?xml version="1.0" encoding="UTF-8"?>
<svg width="800" height="600" viewBox="0 0 800 600" xmlns="http://www.w3.org/2000/svg">
  <!-- Fondo -->
  <rect width="800" height="600" fill="#f8f9fa"/>
  
  <!-- Título -->
  <rect width="800" height="40" fill="#007bff"/>
  <text x="20" y="25" fill="#ffffff" font-family="Arial" font-size="16" font-weight="bold">Matriz TF-IDF Resultante</text>
  
  <!-- Contenedor de la matriz -->
  <rect x="20" y="60" width="760" height="520" fill="#ffffff" stroke="#dee2e6" stroke-width="2"/>
  
  <!-- Encabezados de columnas (términos) -->
  <rect x="120" y="80" width="640" height="30" fill="#e9ecef"/>
  <text x="130" y="100" fill="#495057" font-family="Arial" font-size="10" font-weight="bold">análisis</text>
  <text x="190" y="100" fill="#495057" font-family="Arial" font-size="10" font-weight="bold">artificial</text>
  <text x="250" y="100" fill="#495057" font-family="Arial" font-size="10" font-weight="bold">computadora</text>
  <text x="330" y="100" fill="#495057" font-family="Arial" font-size="10" font-weight="bold">datos</text>
  <text x="380" y="100" fill="#495057" font-family="Arial" font-size="10" font-weight="bold">inteligencia</text>
  <text x="460" y="100" fill="#495057" font-family="Arial" font-size="10" font-weight="bold">lenguaje</text>
  <text x="520" y="100" fill="#495057" font-family="Arial" font-size="10" font-weight="bold">natural</text>
  <text x="580" y="100" fill="#495057" font-family="Arial" font-size="10" font-weight="bold">procesamiento</text>
  <text x="680" y="100" fill="#495057" font-family="Arial" font-size="10" font-weight="bold">texto</text>
  
  <!-- Encabezados de filas (documentos) -->
  <rect x="20" y="110" width="100" height="450" fill="#e9ecef"/>
  <text x="30" y="135" fill="#495057" font-family="Arial" font-size="11" font-weight="bold">Documento 1</text>
  <text x="30" y="185" fill="#495057" font-family="Arial" font-size="11" font-weight="bold">Documento 2</text>
  <text x="30" y="235" fill="#495057" font-family="Arial" font-size="11" font-weight="bold">Documento 3</text>
  <text x="30" y="285" fill="#495057" font-family="Arial" font-size="11" font-weight="bold">Documento 4</text>
  <text x="30" y="335" fill="#495057" font-family="Arial" font-size="11" font-weight="bold">Documento 5</text>
  
  <!-- Valores de la matriz TF-IDF -->
  <!-- Fila 1 -->
  <rect x="120" y="110" width="60" height="50" fill="#fff3cd" stroke="#ffeaa7"/>
  <text x="140" y="140" fill="#856404" font-family="Consolas, monospace" font-size="10">0.234</text>
  
  <rect x="180" y="110" width="60" height="50" fill="#d1ecf1" stroke="#bee5eb"/>
  <text x="200" y="140" fill="#0c5460" font-family="Consolas, monospace" font-size="10">0.156</text>
  
  <rect x="240" y="110" width="80" height="50" fill="#f8d7da" stroke="#f5c6cb"/>
  <text x="270" y="140" fill="#721c24" font-family="Consolas, monospace" font-size="10">0.089</text>
  
  <rect x="320" y="110" width="60" height="50" fill="#d4edda" stroke="#c3e6cb"/>
  <text x="340" y="140" fill="#155724" font-family="Consolas, monospace" font-size="10">0.312</text>
  
  <rect x="380" y="110" width="80" height="50" fill="#fff3cd" stroke="#ffeaa7"/>
  <text x="410" y="140" fill="#856404" font-family="Consolas, monospace" font-size="10">0.198</text>
  
  <rect x="460" y="110" width="60" height="50" fill="#d1ecf1" stroke="#bee5eb"/>
  <text x="480" y="140" fill="#0c5460" font-family="Consolas, monospace" font-size="10">0.267</text>
  
  <rect x="520" y="110" width="60" height="50" fill="#d4edda" stroke="#c3e6cb"/>
  <text x="540" y="140" fill="#155724" font-family="Consolas, monospace" font-size="10">0.289</text>
  
  <rect x="580" y="110" width="90" height="50" fill="#f8d7da" stroke="#f5c6cb"/>
  <text x="615" y="140" fill="#721c24" font-family="Consolas, monospace" font-size="10">0.145</text>
  
  <rect x="670" y="110" width="60" height="50" fill="#fff3cd" stroke="#ffeaa7"/>
  <text x="690" y="140" fill="#856404" font-family="Consolas, monospace" font-size="10">0.178</text>
  
  <!-- Fila 2 -->
  <rect x="120" y="160" width="60" height="50" fill="#ffffff" stroke="#dee2e6"/>
  <text x="140" y="190" fill="#6c757d" font-family="Consolas, monospace" font-size="10">0.000</text>
  
  <rect x="180" y="160" width="60" height="50" fill="#d4edda" stroke="#c3e6cb"/>
  <text x="200" y="190" fill="#155724" font-family="Consolas, monospace" font-size="10">0.298</text>
  
  <rect x="240" y="160" width="80" height="50" fill="#d1ecf1" stroke="#bee5eb"/>
  <text x="270" y="190" fill="#0c5460" font-family="Consolas, monospace" font-size="10">0.167</text>
  
  <rect x="320" y="160" width="60" height="50" fill="#f8d7da" stroke="#f5c6cb"/>
  <text x="340" y="190" fill="#721c24" font-family="Consolas, monospace" font-size="10">0.089</text>
  
  <rect x="380" y="160" width="80" height="50" fill="#d4edda" stroke="#c3e6cb"/>
  <text x="410" y="190" fill="#155724" font-family="Consolas, monospace" font-size="10">0.345</text>
  
  <rect x="460" y="160" width="60" height="50" fill="#fff3cd" stroke="#ffeaa7"/>
  <text x="480" y="190" fill="#856404" font-family="Consolas, monospace" font-size="10">0.123</text>
  
  <rect x="520" y="160" width="60" height="50" fill="#ffffff" stroke="#dee2e6"/>
  <text x="540" y="190" fill="#6c757d" font-family="Consolas, monospace" font-size="10">0.000</text>
  
  <rect x="580" y="160" width="90" height="50" fill="#d1ecf1" stroke="#bee5eb"/>
  <text x="615" y="190" fill="#0c5460" font-family="Consolas, monospace" font-size="10">0.234</text>
  
  <rect x="670" y="160" width="60" height="50" fill="#f8d7da" stroke="#f5c6cb"/>
  <text x="690" y="190" fill="#721c24" font-family="Consolas, monospace" font-size="10">0.156</text>
  
  <!-- Continuar con más filas... (simplificado) -->
  <!-- Fila 3 -->
  <rect x="120" y="210" width="610" height="50" fill="#f8f9fa" stroke="#e9ecef"/>
  <text x="400" y="240" fill="#6c757d" font-family="Arial" font-size="12">... más valores TF-IDF ...</text>
  
  <!-- Leyenda -->
  <rect x="50" y="450" width="700" height="100" fill="#f8f9fa" stroke="#dee2e6"/>
  <text x="60" y="470" fill="#495057" font-family="Arial" font-size="12" font-weight="bold">Interpretación de la Matriz TF-IDF:</text>
  
  <rect x="70" y="480" width="15" height="15" fill="#d4edda"/>
  <text x="95" y="492" fill="#495057" font-family="Arial" font-size="11">Valores altos (0.25-0.35): Términos muy relevantes para el documento</text>
  
  <rect x="70" y="500" width="15" height="15" fill="#fff3cd"/>
  <text x="95" y="512" fill="#495057" font-family="Arial" font-size="11">Valores medios (0.15-0.25): Términos moderadamente relevantes</text>
  
  <rect x="70" y="520" width="15" height="15" fill="#d1ecf1"/>
  <text x="95" y="532" fill="#495057" font-family="Arial" font-size="11">Valores bajos (0.05-0.15): Términos poco relevantes</text>
  
  <rect x="400" y="480" width="15" height="15" fill="#ffffff" stroke="#dee2e6"/>
  <text x="425" y="492" fill="#495057" font-family="Arial" font-size="11">Valor 0.000: Término no presente en el documento</text>
  
  <text x="400" y="512" fill="#495057" font-family="Arial" font-size="11">Dimensiones: 5 documentos × 9 términos únicos</text>
  <text x="400" y="532" fill="#495057" font-family="Arial" font-size="11">Matriz dispersa: 67% de valores no nulos</text>
</svg>